<!-- Generated by IcoMoon.io -->
<svg version="1.1" xmlns="http://www.w3.org/2000/svg" width="32" height="32" viewBox="0 0 32 32">
<title>500px</title>
<path d="M7.906 21.025c0.006 0.019 0.175 0.475 0.269 0.706 0.525 1.244 1.281 2.369 2.244 3.331s2.081 1.719 3.331 2.244c1.294 0.544 2.663 0.825 4.075 0.825s2.788-0.275 4.075-0.825c1.25-0.525 2.369-1.281 3.331-2.244s1.719-2.081 2.244-3.331c0.544-1.294 0.825-2.663 0.825-4.075s-0.275-2.787-0.825-4.075c-0.525-1.25-1.281-2.369-2.244-3.331s-2.081-1.719-3.331-2.244c-1.294-0.544-2.663-0.825-4.075-0.825-1.431 0-2.863 0.287-4.131 0.825-1.019 0.431-2.744 1.537-3.75 2.581l-0.006 0.006v-8.625h14.481c0.525-0.006 0.525-0.744 0.525-0.981 0-0.244 0-0.975-0.531-0.981h-15.656c-0.425 0-0.688 0.356-0.688 0.681v12.131c0 0.394 0.488 0.675 0.944 0.769 0.887 0.188 1.088-0.094 1.306-0.394l0.031-0.037c0.331-0.494 1.363-1.531 1.375-1.544 1.613-1.613 3.769-2.5 6.075-2.5 2.294 0 4.444 0.887 6.056 2.5 1.619 1.619 2.512 3.763 2.512 6.037 0 2.281-0.887 4.431-2.5 6.038-1.587 1.587-3.813 2.5-6.094 2.5-1.544 0-3.037-0.413-4.319-1.194l0.006-7.375c0-0.981 0.425-2.056 1.144-2.863 0.819-0.925 1.944-1.431 3.175-1.431 1.188 0 2.3 0.45 3.131 1.269 0.819 0.813 1.275 1.9 1.275 3.056 0 2.462-1.938 4.394-4.412 4.394-0.475 0-1.344-0.212-1.381-0.219-0.5-0.15-0.713 0.544-0.781 0.775-0.269 0.881 0.137 1.056 0.219 1.081 0.794 0.25 1.319 0.294 2.006 0.294 3.494 0 6.337-2.844 6.337-6.338 0-3.469-2.844-6.287-6.331-6.287-1.712 0-3.319 0.656-4.525 1.838-1.15 1.131-1.806 2.637-1.806 4.137v0.038c-0.006 0.188-0.006 4.613-0.012 6.063l-0.006-0.006c-0.656-0.725-1.306-1.837-1.738-2.975-0.169-0.444-0.55-0.369-1.069-0.206-0.25 0.069-0.938 0.281-0.781 0.788v0zM15.35 19.294c0 0.212 0.194 0.4 0.313 0.506l0.037 0.038c0.2 0.194 0.387 0.294 0.563 0.294 0.144 0 0.231-0.069 0.262-0.1 0.087-0.081 1.075-1.087 1.175-1.181l1.106 1.1c0.1 0.113 0.212 0.175 0.344 0.175 0.175 0 0.369-0.106 0.569-0.313 0.475-0.488 0.238-0.75 0.125-0.875l-1.119-1.119 1.169-1.175c0.256-0.275 0.031-0.569-0.194-0.794-0.325-0.325-0.644-0.412-0.844-0.225l-1.163 1.162-1.175-1.175c-0.063-0.063-0.144-0.094-0.225-0.094-0.156 0-0.344 0.106-0.55 0.313-0.363 0.363-0.438 0.613-0.25 0.813l1.175 1.169-1.169 1.169c-0.106 0.1-0.156 0.206-0.15 0.313zM17.906 3.431c-1.875 0-3.875 0.381-5.338 1.012-0.156 0.063-0.25 0.188-0.269 0.362-0.019 0.169 0.025 0.388 0.137 0.675 0.094 0.231 0.331 0.85 0.8 0.669 1.5-0.575 3.162-0.888 4.669-0.888 1.712 0 3.375 0.338 4.938 0.994 1.244 0.525 2.413 1.287 3.688 2.388 0.094 0.081 0.194 0.119 0.294 0.119 0.25 0 0.488-0.244 0.694-0.475 0.337-0.381 0.575-0.7 0.238-1.019-1.219-1.15-2.55-2.013-4.2-2.712-1.788-0.744-3.694-1.125-5.65-1.125zM28.012 26.6v0c-0.225-0.225-0.419-0.356-0.587-0.406s-0.325-0.012-0.444 0.106l-0.113 0.113c-1.163 1.163-2.519 2.075-4.025 2.712-1.563 0.663-3.219 0.994-4.925 0.994-1.712 0-3.369-0.337-4.925-0.994-1.506-0.637-2.863-1.55-4.025-2.712-1.213-1.212-2.125-2.569-2.713-4.025-0.575-1.425-0.763-2.494-0.825-2.844-0.006-0.031-0.013-0.056-0.013-0.075-0.081-0.413-0.463-0.444-1.006-0.356-0.225 0.038-0.919 0.144-0.856 0.637v0.012c0.181 1.156 0.506 2.288 0.963 3.363 0.731 1.731 1.781 3.288 3.119 4.625s2.894 2.381 4.625 3.119c1.794 0.756 3.7 1.144 5.662 1.144s3.869-0.387 5.663-1.144c1.731-0.731 3.288-1.781 4.625-3.119 0 0 0.075-0.075 0.119-0.119 0.137-0.169 0.269-0.45-0.319-1.031z"></path>
</svg>
