<!-- Generated by IcoMoon.io -->
<svg version="1.1" xmlns="http://www.w3.org/2000/svg" width="32" height="32" viewBox="0 0 32 32">
<title>basecamp</title>
<path d="M16 3.331c-5.838 0-10.338 4.888-12.887 9.675-1.438 2.694-2.444 5.644-2.906 8.663-0.050 0.344-0.1 0.688-0.138 1.038-0.019 0.188-0.037 0.375-0.050 0.563-0.019 0.238-0.006 0.313 0.119 0.512 0.375 0.606 0.819 1.169 1.319 1.675 1.025 1.050 2.269 1.856 3.588 2.481 3.006 1.419 6.4 1.931 9.7 2.044 3.406 0.113 6.906-0.169 10.162-1.231 2.781-0.906 5.462-2.488 7.006-5.044 0.169-0.275 0.050-0.681 0.019-1-0.038-0.381-0.087-0.756-0.15-1.131-0.113-0.738-0.262-1.462-0.444-2.188-0.363-1.475-0.856-2.925-1.456-4.319-2.175-5.050-6.2-10.438-11.925-11.55-0.644-0.125-1.3-0.188-1.956-0.188zM16.2 27.819c-3.569 0-7.456-0.319-10.669-2.038-1.25-0.669-2.525-1.637-3.125-2.969-0.175-0.387-0.112-0.538-0.031-0.994 0.056-0.294 0.081-0.581 0.212-0.856 0.181-0.381 0.369-0.756 0.563-1.131 0.656-1.269 1.363-2.525 2.181-3.706 0.406-0.581 0.838-1.156 1.337-1.656 0.35-0.35 0.775-0.725 1.269-0.844 1.513-0.363 2.669 1.387 3.587 2.269 0.444 0.425 1.037 0.906 1.7 0.825 0.456-0.056 0.863-0.413 1.188-0.706 1.106-0.994 1.994-2.225 2.913-3.381 0.456-0.569 0.906-1.144 1.4-1.688 0.331-0.369 0.694-0.787 1.137-1.025 0.794-0.431 1.806 0.456 2.356 0.912 0.938 0.781 1.769 1.694 2.563 2.619 0.756 0.881 1.488 1.775 2.131 2.744 0.994 1.5 1.856 3.1 2.644 4.719 0.169 0.35 0.225 0.587 0.288 0.975 0.038 0.212 0.119 0.456 0.087 0.675-0.044 0.306-0.256 0.637-0.413 0.887-0.375 0.594-0.881 1.106-1.438 1.538-2.331 1.806-5.488 2.406-8.356 2.675-1.175 0.113-2.35 0.156-3.525 0.156z"></path>
</svg>
