<!-- Generated by IcoMoon.io -->
<svg version="1.1" xmlns="http://www.w3.org/2000/svg" width="32" height="32" viewBox="0 0 32 32">
<title>hipster</title>
<path d="M16 32c8.837 0 16-7.163 16-16s-7.163-16-16-16-16 7.163-16 16 7.163 16 16 16zM16 3c7.18 0 13 5.82 13 13s-5.82 13-13 13-13-5.82-13-13 5.82-13 13-13zM8 10c0-1.105 0.895-2 2-2s2 0.895 2 2-0.895 2-2 2-2-0.895-2-2zM20 10c0-1.105 0.895-2 2-2s2 0.895 2 2-0.895 2-2 2-2-0.895-2-2z"></path>
<path d="M21.121 16.879c-1.172-1.172-3.071-1.172-4.243 0s-1.172 3.071 0 4.243c0.038 0.038 0.076 0.074 0.115 0.109 2.704 2.453 9.006-0.058 9.006-3.23-1.938 1.25-3.452 0.306-4.879-1.121z"></path>
<path d="M10.879 16.879c1.172-1.172 3.071-1.172 4.243 0s1.172 3.071 0 4.243c-0.038 0.038-0.076 0.074-0.115 0.109-2.704 2.453-9.006-0.058-9.006-3.23 1.938 1.25 3.452 0.306 4.879-1.121z"></path>
</svg>
