<!-- Generated by IcoMoon.io -->
<svg version="1.1" xmlns="http://www.w3.org/2000/svg" width="32" height="32" viewBox="0 0 32 32">
<title>lastfm2</title>
<path d="M29 0h-26c-1.65 0-3 1.35-3 3v26c0 1.65 1.35 3 3 3h26c1.65 0 3-1.35 3-3v-26c0-1.65-1.35-3-3-3zM23.331 23.775c-5.55 0-7.475-2.5-8.5-5.613l-1.025-3.206c-0.769-2.344-1.669-4.169-4.487-4.169-1.956 0-3.944 1.412-3.944 5.356 0 3.081 1.569 5.006 3.787 5.006 2.5 0 4.169-1.863 4.169-1.863l1.025 2.788c0 0-1.731 1.7-5.356 1.7-4.5 0-7-2.625-7-7.5 0-5.069 2.5-8.050 7.219-8.050 4.269 0 6.412 1.537 7.762 5.706l1.056 3.206c0.769 2.344 2.119 4.044 5.356 4.044 2.181 0 3.337-0.481 3.337-1.669 0-0.931-0.544-1.606-2.181-1.988l-2.181-0.512c-2.663-0.644-3.719-2.019-3.719-4.2 0-3.494 2.825-4.588 5.706-4.588 3.269 0 5.262 1.188 5.519 4.075l-3.206 0.387c-0.131-1.381-0.962-1.956-2.5-1.956-1.413 0-2.275 0.644-2.275 1.731 0 0.963 0.419 1.537 1.825 1.863l2.050 0.45c2.756 0.644 4.231 1.988 4.231 4.587 0 3.194-2.694 4.413-6.669 4.413z"></path>
</svg>
