<!-- Generated by IcoMoon.io -->
<svg version="1.1" xmlns="http://www.w3.org/2000/svg" width="32" height="32" viewBox="0 0 32 32">
<title>lastfm</title>
<path d="M14.113 23.944l-1.175-3.188c0 0-1.906 2.125-4.762 2.125-2.531 0-4.325-2.2-4.325-5.719 0-4.506 2.275-6.119 4.506-6.119 3.225 0 4.25 2.088 5.131 4.763l1.175 3.663c1.175 3.556 3.375 6.412 9.713 6.412 4.544 0 7.625-1.394 7.625-5.056 0-2.969-1.688-4.506-4.837-5.244l-2.344-0.512c-1.613-0.369-2.087-1.025-2.087-2.125 0-1.244 0.988-1.981 2.6-1.981 1.762 0 2.712 0.662 2.856 2.237l3.663-0.438c-0.294-3.3-2.569-4.656-6.306-4.656-3.3 0-6.525 1.244-6.525 5.244 0 2.494 1.212 4.069 4.25 4.8l2.494 0.587c1.869 0.438 2.494 1.212 2.494 2.275 0 1.356-1.319 1.906-3.813 1.906-3.7 0-5.244-1.944-6.119-4.619l-1.212-3.662c-1.531-4.769-3.988-6.525-8.863-6.525-5.388 0-8.25 3.406-8.25 9.2 0 5.569 2.856 8.575 7.994 8.575 4.138 0 6.119-1.944 6.119-1.944v0z"></path>
</svg>
