<!-- Generated by IcoMoon.io -->
<svg version="1.1" xmlns="http://www.w3.org/2000/svg" width="32" height="32" viewBox="0 0 32 32">
<title>magnet</title>
<path d="M28 0h-8l2 18c0 3.314-2.686 6-6 6s-6-2.686-6-6l2-18h-8l-2 18c0 7.732 6.268 14 14 14s14-6.268 14-14l-2-18zM24.309 26.309c-2.219 2.219-5.17 3.441-8.309 3.441s-6.089-1.222-8.309-3.441c-2.191-2.191-3.41-5.095-3.441-8.189l1.128-10.151h3.472l-1.101 9.907v0.125c0 2.204 0.858 4.275 2.416 5.834s3.63 2.416 5.834 2.416 4.275-0.858 5.834-2.416c1.558-1.558 2.416-3.63 2.416-5.834v-0.125l-0.014-0.124-1.087-9.783h3.472l1.128 10.151c-0.031 3.094-1.25 5.998-3.441 8.189z"></path>
</svg>
