<!-- Generated by IcoMoon.io -->
<svg version="1.1" xmlns="http://www.w3.org/2000/svg" width="32" height="32" viewBox="0 0 32 32">
<title>stumbleupon2</title>
<path d="M26.625 0h-21.25c-2.956 0-5.375 2.419-5.375 5.375v21.25c0 2.956 2.419 5.375 5.375 5.375h21.25c2.956 0 5.375-2.419 5.375-5.375v-21.25c0-2.956-2.419-5.375-5.375-5.375zM16 10c-1.103 0-2 0.897-2 2v8c0 3.308-2.692 6-6 6s-6-2.692-6-6v-4h4v4c0 1.103 0.897 2 2 2s2-0.897 2-2v-8c0-3.308 2.692-6 6-6s6 2.692 6 5.563v1.938l-2.563 0.75-1.438-0.75v-1.938c0-0.665-0.897-1.563-2-1.563zM30 20c0 3.308-2.692 6-6 6s-6-2.692-6-6.438v-3.875l1.438 0.75 2.563-0.75v3.875c0 1.54 0.897 2.438 2 2.438s2-0.897 2-2v-4h4v4z"></path>
</svg>
