<!-- Generated by IcoMoon.io -->
<svg version="1.1" xmlns="http://www.w3.org/2000/svg" width="32" height="32" viewBox="0 0 32 32">
<title>ungroup</title>
<path d="M12 14.5c0 0.825-0.675 1.5-1.5 1.5h-3c-0.825 0-1.5-0.675-1.5-1.5v-3c0-0.825 0.675-1.5 1.5-1.5h3c0.825 0 1.5 0.675 1.5 1.5v3z"></path>
<path d="M22 14.5c0 0.825-0.675 1.5-1.5 1.5h-3c-0.825 0-1.5-0.675-1.5-1.5v-3c0-0.825 0.675-1.5 1.5-1.5h3c0.825 0 1.5 0.675 1.5 1.5v3z"></path>
<path d="M12 24.5c0 0.825-0.675 1.5-1.5 1.5h-3c-0.825 0-1.5-0.675-1.5-1.5v-3c0-0.825 0.675-1.5 1.5-1.5h3c0.825 0 1.5 0.675 1.5 1.5v3z"></path>
<path d="M22 24.5c0 0.825-0.675 1.5-1.5 1.5h-3c-0.825 0-1.5-0.675-1.5-1.5v-3c0-0.825 0.675-1.5 1.5-1.5h3c0.825 0 1.5 0.675 1.5 1.5v3z"></path>
<path d="M28.503 5l3.497-3.497v-1.503h-1.503l-3.497 3.497-3.497-3.497h-1.503v1.503l3.497 3.497-3.497 3.497v1.503h1.503l3.497-3.497 3.497 3.497h1.503v-1.503z"></path>
<path d="M0 24h2v4h-2v-4z"></path>
<path d="M0 18h2v4h-2v-4z"></path>
<path d="M26 14h2v4h-2v-4z"></path>
<path d="M26 26h2v4h-2v-4z"></path>
<path d="M26 20h2v4h-2v-4z"></path>
<path d="M0 12h2v4h-2v-4z"></path>
<path d="M0 6h2v4h-2v-4z"></path>
<path d="M16 4h4v2h-4v-2z"></path>
<path d="M10 4h4v2h-4v-2z"></path>
<path d="M4 4h4v2h-4v-2z"></path>
<path d="M14 30h4v2h-4v-2z"></path>
<path d="M20 30h4v2h-4v-2z"></path>
<path d="M8 30h4v2h-4v-2z"></path>
<path d="M2 30h4v2h-4v-2z"></path>
</svg>
