<!-- Generated by IcoMoon.io -->
<svg version="1.1" xmlns="http://www.w3.org/2000/svg" width="32" height="32" viewBox="0 0 32 32">
<title>xing</title>
<path d="M29 0h-26c-1.65 0-3 1.35-3 3v26c0 1.65 1.35 3 3 3h26c1.65 0 3-1.35 3-3v-26c0-1.65-1.35-3-3-3zM9.769 20.813h-3.456c-0.206 0-0.362-0.094-0.45-0.238-0.094-0.15-0.094-0.337 0-0.531l3.675-6.488c0.006-0.006 0.006-0.012 0-0.019l-2.338-4.050c-0.094-0.194-0.112-0.381-0.019-0.531 0.088-0.144 0.263-0.219 0.475-0.219h3.462c0.531 0 0.794 0.344 0.963 0.65 0 0 2.363 4.125 2.381 4.15-0.137 0.25-3.737 6.606-3.737 6.606-0.188 0.325-0.438 0.669-0.956 0.669zM26.137 4.756l-7.662 13.55c-0.006 0.006-0.006 0.019 0 0.025l4.881 8.913c0.094 0.194 0.1 0.387 0.006 0.538-0.087 0.144-0.25 0.219-0.462 0.219h-3.456c-0.531 0-0.794-0.35-0.969-0.656 0 0-4.906-9-4.919-9.025 0.244-0.431 7.7-13.656 7.7-13.656 0.188-0.331 0.413-0.656 0.925-0.656h3.506c0.206 0 0.375 0.081 0.462 0.219 0.087 0.144 0.087 0.338-0.012 0.531z"></path>
</svg>
