<!-- Generated by IcoMoon.io -->
<svg version="1.1" xmlns="http://www.w3.org/2000/svg" width="32" height="32" viewBox="0 0 32 32">
<title>yahoo2</title>
<path d="M16.038 2.175c-5.656 0-11-0.744-16.038-2.175 0 11.306 0 29.163 0 32 5.044-1.431 10.387-2.175 16.038-2.175 5.587 0 10.919 0.725 15.962 2.175 0-10.887 0-20.306 0-32-5.044 1.45-10.369 2.175-15.962 2.175zM24.9 4.906l-0.194 0.306c-0.181 0.287-0.344 0.531-0.569 0.875-0.3 0.45-0.863 1.344-1.538 2.494-0.188 0.319-0.419 0.7-0.656 1.113-0.456 0.769-0.969 1.637-1.375 2.325-0.169 0.294-0.337 0.594-0.512 0.894-0.45 0.781-0.913 1.588-1.356 2.363-0.456 0.806-0.906 1.6-1.356 2.387v0.794c0 1.1 0.025 2.3 0.063 3.369 0.019 0.488 0.038 1.356 0.063 2.275 0.025 1.094 0.050 2.225 0.081 2.8l0.006 0.175v0.019l-0.188-0.050c-0.075-0.019-0.144-0.038-0.219-0.056-0.225-0.050-0.469-0.087-0.706-0.113-0.144-0.012-0.294-0.019-0.444-0.019 0 0 0 0 0 0s0 0 0 0c-0.15 0-0.3 0.006-0.444 0.019-0.238 0.025-0.481 0.063-0.706 0.113-0.075 0.019-0.15 0.038-0.219 0.056l-0.188 0.050v-0.019l0.006-0.175c0.025-0.569 0.056-1.706 0.081-2.8 0.019-0.919 0.044-1.788 0.063-2.275 0.044-1.075 0.063-2.269 0.063-3.369v-0.794c-0.45-0.794-0.9-1.581-1.356-2.387-0.444-0.781-0.906-1.581-1.35-2.363-0.175-0.3-0.344-0.6-0.512-0.894-0.4-0.694-0.919-1.563-1.375-2.325-0.244-0.406-0.475-0.794-0.656-1.113-0.675-1.15-1.238-2.037-1.537-2.494-0.225-0.344-0.388-0.588-0.569-0.875l-0.194-0.306 0.35 0.1c0.444 0.125 0.9 0.188 1.387 0.188s0.956-0.063 1.394-0.188l0.106-0.031 0.056 0.094c0.863 1.556 3.181 5.369 4.569 7.65 0.475 0.787 0.856 1.406 1.044 1.725 0 0 0 0 0-0.006 0 0 0 0 0 0.006 0.188-0.313 0.569-0.938 1.044-1.725 1.387-2.275 3.706-6.088 4.569-7.65l0.056-0.094 0.106 0.031c0.438 0.125 0.906 0.188 1.394 0.188s0.944-0.063 1.387-0.188l0.331-0.1z"></path>
</svg>
